<?xml version="1.0" standalone="no"?>
<!DOCTYPE svg PUBLIC "-//W3C//DTD SVG 20010904//EN"
 "http://www.w3.org/TR/2001/REC-SVG-20010904/DTD/svg10.dtd">
<svg version="1.0" xmlns="http://www.w3.org/2000/svg"
 width="768.000000pt" height="192.000000pt" viewBox="0 0 768.000000 192.000000"
 preserveAspectRatio="xMidYMid meet">

<g transform="translate(0.000000,192.000000) scale(0.100000,-0.100000)"
fill="#000000" stroke="none">
<path d="M1083 1860 c-157 -32 -303 -210 -303 -372 0 -37 1 -38 34 -38 115 0
245 105 296 239 23 59 39 182 24 180 -5 -1 -28 -5 -51 -9z"/>
<path d="M6186 1750 c-113 -35 -131 -210 -27 -265 65 -33 158 -10 197 50 25
39 24 116 -2 151 -43 58 -107 83 -168 64z"/>
<path d="M1802 908 l3 -833 113 -3 112 -3 0 616 c0 339 3 614 8 611 4 -2 117
-279 252 -616 l244 -611 96 3 95 3 245 612 c135 337 248 613 253 613 4 0 7
-277 7 -615 l0 -615 115 0 115 0 0 835 0 835 -149 0 -149 0 -236 -592 c-129
-326 -248 -626 -263 -665 -15 -40 -31 -73 -34 -73 -3 0 -124 299 -270 665
l-264 665 -148 0 -147 0 2 -832z"/>
<path d="M412 1415 c-158 -44 -289 -193 -327 -372 -20 -94 -18 -240 4 -348 59
-287 251 -584 404 -626 46 -13 93 -4 212 41 87 33 171 30 266 -8 133 -53 196
-51 278 8 56 41 153 174 206 284 63 131 64 137 18 163 -55 31 -127 110 -160
173 -26 50 -28 64 -28 165 0 103 2 114 31 176 20 42 52 87 88 122 48 47 56 59
47 75 -19 36 -94 94 -160 126 -61 28 -74 31 -166 30 -90 0 -110 -4 -199 -37
-54 -20 -111 -37 -126 -37 -15 0 -70 16 -121 36 -110 42 -189 51 -267 29z"/>
<path d="M6971 1305 c-204 -45 -349 -192 -408 -415 -24 -90 -24 -310 0 -400
62 -233 210 -377 428 -416 190 -35 378 18 499 139 59 58 117 170 126 240 l7
48 -118 -3 -117 -3 -18 -46 c-43 -115 -130 -173 -260 -174 -202 0 -320 155
-320 419 1 246 113 400 300 413 129 9 245 -68 285 -188 17 -49 19 -51 47 -45
17 3 69 6 116 6 l85 0 -7 48 c-9 71 -70 185 -131 247 -120 119 -323 171 -514
130z"/>
<path d="M5274 1296 c-131 -30 -229 -96 -279 -187 -23 -44 -30 -69 -33 -135
-11 -212 88 -304 416 -385 222 -54 263 -77 278 -156 13 -72 -45 -151 -127
-173 -54 -15 -171 -14 -217 1 -73 23 -119 75 -146 162 -5 15 -20 17 -126 17
-138 0 -133 5 -102 -98 58 -186 223 -284 477 -285 55 -1 125 5 155 12 137 33
251 115 300 216 33 66 39 182 15 255 -38 114 -128 167 -396 234 -184 45 -249
71 -274 110 -46 70 -15 163 70 206 41 21 63 25 136 25 78 0 90 -3 134 -30 45
-28 83 -81 99 -137 5 -16 19 -18 116 -18 l110 0 0 38 c-1 45 -37 136 -74 184
-36 48 -117 103 -191 129 -78 27 -253 35 -341 15z"/>
<path d="M3710 860 c0 -460 3 -494 51 -596 81 -173 303 -254 514 -187 89 28
167 93 212 175 l18 33 3 -107 3 -108 121 0 121 0 -6 152 c-4 83 -7 357 -7 610
l0 458 -125 0 -124 0 -3 -402 c-3 -399 -3 -403 -27 -455 -28 -62 -92 -125
-147 -144 -50 -17 -158 -17 -207 0 -55 19 -101 63 -128 123 -24 53 -24 56 -27
466 l-3 412 -120 0 -119 0 0 -430z"/>
<path d="M6102 683 l3 -608 123 -3 122 -3 0 611 0 610 -125 0 -125 0 2 -607z"/>
</g>
</svg>
